<svg enable-background="new 0 0 24 24" height="512" viewBox="0 0 24 24" width="512" xmlns="http://www.w3.org/2000/svg"><path d="m21.25 0h-18.5c-1.517 0-2.75 1.233-2.75 2.75v18.5c0 1.517 1.233 2.75 2.75 2.75h18.5c1.517 0 2.75-1.233 2.75-2.75v-18.5c0-1.517-1.233-2.75-2.75-2.75z" fill="#eceff1"/><path d="m12 0h-9.25c-1.517 0-2.75 1.233-2.75 2.75v18.5c0 1.517 1.233 2.75 2.75 2.75h9.25z" fill="#cdd0d2"/><path d="m15 16.25c0 .267-.142.514-.372.648-.117.068-.247.102-.378.102-.128 0-.255-.032-.37-.098l-7.5-4.25c-.235-.132-.38-.381-.38-.652 0-.27.146-.52.38-.652l7.5-4.25c.233-.132.517-.129.748.004.23.134.372.381.372.648z" fill="#607d8b"/><path d="m15 12h-9c0 .271.146.52.38.652l7.5 4.25c.115.066.242.098.37.098.131 0 .261-.034.378-.102.23-.134.372-.381.372-.648z" fill="#546d79"/></svg>