<svg enable-background="new 0 0 24 24" height="512" viewBox="0 0 24 24" width="512" xmlns="http://www.w3.org/2000/svg"><path d="m21.25 0h-18.5c-1.517 0-2.75 1.233-2.75 2.75v18.5c0 1.517 1.233 2.75 2.75 2.75h18.5c1.517 0 2.75-1.233 2.75-2.75v-18.5c0-1.517-1.233-2.75-2.75-2.75z" fill="#eceff1"/><path d="m12 0h-9.25c-1.517 0-2.75 1.233-2.75 2.75v18.5c0 1.517 1.233 2.75 2.75 2.75h9.25z" fill="#cdd0d2"/><path d="m16.62 12.652-7.5 4.25c-.115.066-.243.098-.37.098-.13 0-.261-.034-.377-.102-.231-.134-.373-.381-.373-.648v-8.5c0-.267.142-.514.373-.648.23-.134.515-.136.747-.004l7.5 4.25c.235.132.38.382.38.652 0 .271-.145.52-.38.652z" fill="#607d8b"/><path d="m17 12h-9v4.25c0 .267.142.514.373.648.116.068.247.102.377.102.127 0 .255-.032.37-.098l7.5-4.25c.235-.132.38-.381.38-.652z" fill="#546d79"/></svg>