<svg enable-background="new 0 0 24 24" height="512" viewBox="0 0 24 24" width="512" xmlns="http://www.w3.org/2000/svg"><path d="m21.25 0h-18.5c-1.517 0-2.75 1.233-2.75 2.75v18.5c0 1.517 1.233 2.75 2.75 2.75h18.5c1.517 0 2.75-1.233 2.75-2.75v-18.5c0-1.517-1.233-2.75-2.75-2.75z" fill="#eceff1"/><path d="m12 0h-9.25c-1.517 0-2.75 1.233-2.75 2.75v18.5c0 1.517 1.233 2.75 2.75 2.75h9.25z" fill="#cdd0d2"/><path d="m16.898 15.628c-.134.23-.381.372-.648.372h-8.5c-.267 0-.514-.142-.648-.372s-.136-.516-.004-.748l4.25-7.5c.266-.469 1.039-.469 1.305 0l4.25 7.5c.131.232.129.517-.005.748z" fill="#607d8b"/><path d="m12 7.028c-.26 0-.52.117-.652.352l-4.25 7.5c-.132.232-.13.518.004.748s.381.372.648.372h4.25z" fill="#546d79"/></svg>